<svg width="242" height="195" viewBox="0 0 242 195" fill="none" xmlns="http://www.w3.org/2000/svg">
<g id="Bubbles">
<circle id="Ellipse 18" cx="101.546" cy="83.742" r="27.5" transform="rotate(-22.5259 101.546 83.742)" fill="#D0F6FF"/>
<circle id="Ellipse 11" cx="86.3813" cy="66.7556" r="33" transform="rotate(-22.5259 86.3813 66.7556)" stroke="#21B7E2" stroke-width="4"/>
<path id="Ellipse 17" d="M77.6976 84.9084C68.7256 82.4013 63.4849 73.0957 65.9919 64.1238" stroke="#21B7E2" stroke-width="4" stroke-linecap="round"/>
<circle id="Ellipse 13" cx="32.9192" cy="90.5526" r="13.5" transform="rotate(-22.5259 32.9192 90.5526)" fill="#D0F6FF"/>
<circle id="Ellipse 15" cx="88.5286" cy="141.105" r="13.5" transform="rotate(-22.5259 88.5286 141.105)" fill="#D0F6FF"/>
<circle id="Ellipse 19" cx="223.642" cy="198.385" r="13.5" transform="rotate(-22.5259 223.642 198.385)" fill="#D0F6FF"/>
<circle id="Ellipse 12" cx="25.6637" cy="82.1945" r="15" transform="rotate(-22.5259 25.6637 82.1945)" stroke="#21B7E2" stroke-width="4"/>
<circle id="Ellipse 14" cx="61.0177" cy="124.368" r="10.5" transform="rotate(-22.5259 61.0177 124.368)" stroke="#21B7E2" stroke-width="4"/>
<path id="Ellipse 16" d="M29.1115 90.5079C25.5404 91.9889 21.6164 90.7082 20.3469 87.6473" stroke="#21B7E2" stroke-width="4" stroke-linecap="round"/>
</g>
</svg>
