<svg width="26" height="26" viewBox="0 0 26 26" fill="none" xmlns="http://www.w3.org/2000/svg">
<g id="gala:search">
<g id="galaSearch0">
<path id="galaSearch1" d="M9.04667 14.7501L2.1228 21.6739" stroke="#FBFBFB"/>
<path id="galaSearch2" d="M11.3011 17.0046L4.3772 23.9285" stroke="#FBFBFB"/>
<path id="galaSearch3" d="M4.37735 23.9285C4.07838 24.2274 3.67289 24.3954 3.25008 24.3954C2.82727 24.3954 2.42177 24.2274 2.1228 23.9285" stroke="#FBFBFB" stroke-linecap="round" stroke-linejoin="round"/>
<path id="galaSearch4" d="M2.12269 21.674C1.82372 21.9729 1.65576 22.3784 1.65576 22.8012C1.65576 23.224 1.82372 23.6295 2.12269 23.9285" stroke="#FBFBFB" stroke-linecap="round" stroke-linejoin="round"/>
<path id="galaSearch5" d="M24.4416 8.78354C24.4416 9.72563 24.256 10.6585 23.8955 11.5289C23.535 12.3993 23.0066 13.1901 22.3404 13.8563C21.6742 14.5224 20.8834 15.0509 20.013 15.4114C19.1426 15.7719 18.2098 15.9575 17.2677 15.9575C16.3256 15.9575 15.3927 15.7719 14.5223 15.4114C13.652 15.0509 12.8611 14.5224 12.1949 13.8563C11.5288 13.1901 11.0004 12.3993 10.6398 11.5289C10.2793 10.6585 10.0937 9.72563 10.0938 8.78354C10.0938 6.8809 10.8496 5.05618 12.1949 3.71081C13.5403 2.36544 15.365 1.60962 17.2677 1.60962C18.2098 1.60962 19.1426 1.79518 20.013 2.1557C20.8834 2.51622 21.6742 3.04465 22.3404 3.71081C23.0066 4.37697 23.535 5.16782 23.8955 6.0382C24.256 6.90858 24.4416 7.84145 24.4416 8.78354Z" stroke="#FBFBFB" stroke-linecap="round" stroke-linejoin="round"/>
<path id="galaSearch6" d="M9.04663 14.7501L11.3012 17.0046" stroke="#FBFBFB" stroke-linecap="round" stroke-linejoin="round"/>
<path id="galaSearch7" d="M10.1738 15.8773L12.1949 13.8563" stroke="#FBFBFB" stroke-linecap="round" stroke-linejoin="round"/>
<path id="galaSearch8" d="M7.12207 16.6744L9.37662 18.929" stroke="#FBFBFB" stroke-linecap="round" stroke-linejoin="round"/>
<path id="galaSearch9" d="M21.2531 8.78357C21.2531 9.84059 20.8332 10.8543 20.0858 11.6018C19.3383 12.3492 18.3246 12.7691 17.2676 12.7691" stroke="#FBFBFB" stroke-linecap="round" stroke-linejoin="round"/>
</g>
</g>
</svg>
