<svg width="32" height="32" viewBox="0 0 32 32" fill="none" xmlns="http://www.w3.org/2000/svg">
<g id="icon-park-outline:washing-machine-one">
<g id="Group">
<path id="Vector" d="M25.3333 2.66667H6.66659C5.93021 2.66667 5.33325 3.26363 5.33325 4.00001V28C5.33325 28.7364 5.93021 29.3333 6.66659 29.3333H25.3333C26.0696 29.3333 26.6666 28.7364 26.6666 28V4.00001C26.6666 3.26363 26.0696 2.66667 25.3333 2.66667Z" stroke="black" stroke-width="4"/>
<path id="Vector_2" d="M5.33325 8C5.33325 8.35363 5.47373 8.69277 5.72378 8.94281C5.97383 9.19286 6.31296 9.33334 6.66659 9.33334H25.3333C25.6869 9.33334 26.026 9.19286 26.2761 8.94281C26.5261 8.69277 26.6666 8.35363 26.6666 8V4.00001C26.6666 3.64638 26.5261 3.30724 26.2761 3.0572C26.026 2.80715 25.6869 2.66667 25.3333 2.66667H6.66659C6.31296 2.66667 5.97383 2.80715 5.72378 3.0572C5.47373 3.30724 5.33325 3.64638 5.33325 4.00001V8Z" stroke="black" stroke-width="4"/>
<path id="Vector_3" d="M9.33333 7.33334C10.0697 7.33334 10.6667 6.73638 10.6667 6.00001C10.6667 5.26363 10.0697 4.66667 9.33333 4.66667C8.59695 4.66667 8 5.26363 8 6.00001C8 6.73638 8.59695 7.33334 9.33333 7.33334Z" fill="black"/>
<path id="Vector_4" d="M13.3333 7.33334C14.0697 7.33334 14.6667 6.73638 14.6667 6.00001C14.6667 5.26363 14.0697 4.66667 13.3333 4.66667C12.597 4.66667 12 5.26363 12 6.00001C12 6.73638 12.597 7.33334 13.3333 7.33334Z" fill="black"/>
<path id="Vector_5" d="M15.9999 24C18.5772 24 20.6666 21.9107 20.6666 19.3333C20.6666 16.756 18.5772 14.6667 15.9999 14.6667C13.4226 14.6667 11.3333 16.756 11.3333 19.3333C11.3333 21.9107 13.4226 24 15.9999 24Z" stroke="black" stroke-width="4"/>
</g>
</g>
</svg>
