<svg width="37" height="37" viewBox="0 0 37 37" fill="none" xmlns="http://www.w3.org/2000/svg">
<g id="material-symbols:payments-outline-rounded">
<path id="Vector" d="M21.5834 20.0417C20.2987 20.0417 19.2067 19.592 18.3074 18.6927C17.4081 17.7934 16.9584 16.7014 16.9584 15.4167C16.9584 14.1319 17.4081 13.0399 18.3074 12.1406C19.2067 11.2413 20.2987 10.7917 21.5834 10.7917C22.8681 10.7917 23.9602 11.2413 24.8595 12.1406C25.7588 13.0399 26.2084 14.1319 26.2084 15.4167C26.2084 16.7014 25.7588 17.7934 24.8595 18.6927C23.9602 19.592 22.8681 20.0417 21.5834 20.0417ZM10.7918 24.6667C9.94383 24.6667 9.21771 24.3645 8.61338 23.7602C8.00904 23.1558 7.70739 22.4302 7.70842 21.5833V9.24999C7.70842 8.40208 8.01058 7.67595 8.61492 7.07162C9.21925 6.46728 9.94486 6.16563 10.7918 6.16666H32.3751C33.223 6.16666 33.9491 6.46883 34.5535 7.07316C35.1578 7.67749 35.4594 8.4031 35.4584 9.24999V21.5833C35.4584 22.4312 35.1562 23.1574 34.5519 23.7617C33.9476 24.366 33.222 24.6677 32.3751 24.6667H10.7918ZM13.8751 21.5833H29.2917C29.2917 20.7354 29.5939 20.0093 30.1982 19.405C30.8026 18.8006 31.5282 18.499 32.3751 18.5V12.3333C31.5272 12.3333 30.801 12.0312 30.1967 11.4268C29.5924 10.8225 29.2907 10.0969 29.2917 9.24999H13.8751C13.8751 10.0979 13.5729 10.824 12.9686 11.4284C12.3643 12.0327 11.6386 12.3344 10.7918 12.3333V18.5C11.6397 18.5 12.3658 18.8022 12.9701 19.4065C13.5745 20.0108 13.8761 20.7364 13.8751 21.5833ZM29.2917 30.8333H4.62508C3.77717 30.8333 3.05104 30.5312 2.44671 29.9268C1.84238 29.3225 1.54072 28.5969 1.54175 27.75V12.3333C1.54175 11.8965 1.68975 11.5301 1.98575 11.2341C2.28175 10.9381 2.64764 10.7906 3.08342 10.7917C3.52022 10.7917 3.88663 10.9397 4.18263 11.2357C4.47863 11.5317 4.62611 11.8975 4.62508 12.3333V27.75H29.2917C29.7286 27.75 30.095 27.898 30.391 28.194C30.687 28.49 30.8344 28.8559 30.8334 29.2917C30.8334 29.7285 30.6854 30.0949 30.3894 30.3909C30.0934 30.6869 29.7275 30.8344 29.2917 30.8333Z" fill="black"/>
</g>
</svg>
