<svg width="39" height="39" viewBox="0 0 39 39" fill="none" xmlns="http://www.w3.org/2000/svg">
<g id="heroicons:home-20-solid">
<path id="Vector" fill-rule="evenodd" clip-rule="evenodd" d="M18.1213 4.47135C18.487 4.10579 18.9829 3.90042 19.5 3.90042C20.017 3.90042 20.5129 4.10579 20.8786 4.47135L34.5286 18.1214C34.8013 18.3941 34.9869 18.7415 35.0621 19.1197C35.1373 19.4979 35.0987 19.8899 34.9511 20.2462C34.8036 20.6024 34.5537 20.907 34.2331 21.1212C33.9125 21.3355 33.5356 21.4499 33.15 21.45H31.2V33.15C31.2 33.6672 30.9945 34.1632 30.6288 34.5289C30.2631 34.8946 29.7671 35.1 29.25 35.1H25.35C24.8328 35.1 24.3368 34.8946 23.9711 34.5289C23.6054 34.1632 23.4 33.6672 23.4 33.15V27.3C23.4 26.7828 23.1945 26.2868 22.8288 25.9211C22.4631 25.5555 21.9671 25.35 21.45 25.35H17.55C17.0328 25.35 16.5368 25.5555 16.1711 25.9211C15.8054 26.2868 15.6 26.7828 15.6 27.3V33.15C15.6 33.6672 15.3945 34.1632 15.0288 34.5289C14.6631 34.8946 14.1671 35.1 13.65 35.1H9.74998C9.2328 35.1 8.73681 34.8946 8.37112 34.5289C8.00542 34.1632 7.79998 33.6672 7.79998 33.15V21.45H5.84998C5.46436 21.4499 5.08743 21.3355 4.76683 21.1212C4.44623 20.907 4.19636 20.6024 4.0488 20.2462C3.90125 19.8899 3.86263 19.4979 3.93784 19.1197C4.01304 18.7415 4.1987 18.3941 4.47133 18.1214L18.1213 4.47135Z" fill="white"/>
</g>
</svg>
