<svg width="36" height="36" viewBox="0 0 36 36" fill="none" xmlns="http://www.w3.org/2000/svg">
<g id="mingcute:user-4-line" clip-path="url(#clip0_119_3434)">
<g id="Group">
<path id="Vector" fill-rule="evenodd" clip-rule="evenodd" d="M18 3C26.2845 3 33 9.7155 33 18C33.0053 21.4618 31.8081 24.8181 29.613 27.495L29.643 27.528L29.445 27.696C28.0384 29.3598 26.2854 30.6965 24.3086 31.6126C22.3318 32.5287 20.1788 33.0022 18 33C13.575 33 9.60002 31.0845 6.85502 28.0395L6.55502 27.6945L6.35702 27.5295L6.38702 27.4935C4.19215 24.817 2.99495 21.4613 3.00002 18C3.00002 9.7155 9.71552 3 18 3ZM18 25.5C15.21 25.5 12.6885 26.388 10.8105 27.6075C12.884 29.1639 15.4074 30.0037 18 30C20.5926 30.0037 23.1161 29.1639 25.1895 27.6075C23.0434 26.2329 20.5486 25.5016 18 25.5ZM18 6C15.7418 5.99994 13.5294 6.63707 11.6171 7.83817C9.7048 9.03928 8.17022 10.7556 7.18976 12.7899C6.20929 14.8241 5.82272 17.0938 6.07449 19.3379C6.32626 21.582 7.20615 23.7096 8.61302 25.476C11.0445 23.7315 14.3625 22.5 18 22.5C21.6375 22.5 24.9555 23.7315 27.387 25.476C28.7939 23.7096 29.6738 21.582 29.9255 19.3379C30.1773 17.0938 29.7907 14.8241 28.8103 12.7899C27.8298 10.7556 26.2952 9.03928 24.3829 7.83817C22.4706 6.63707 20.2582 5.99994 18 6ZM18 9C19.5913 9 21.1174 9.63214 22.2427 10.7574C23.3679 11.8826 24 13.4087 24 15C24 16.5913 23.3679 18.1174 22.2427 19.2426C21.1174 20.3679 19.5913 21 18 21C16.4087 21 14.8826 20.3679 13.7574 19.2426C12.6322 18.1174 12 16.5913 12 15C12 13.4087 12.6322 11.8826 13.7574 10.7574C14.8826 9.63214 16.4087 9 18 9ZM18 12C17.2044 12 16.4413 12.3161 15.8787 12.8787C15.3161 13.4413 15 14.2044 15 15C15 15.7956 15.3161 16.5587 15.8787 17.1213C16.4413 17.6839 17.2044 18 18 18C18.7957 18 19.5587 17.6839 20.1213 17.1213C20.6839 16.5587 21 15.7956 21 15C21 14.2044 20.6839 13.4413 20.1213 12.8787C19.5587 12.3161 18.7957 12 18 12Z" fill="black"/>
</g>
</g>
<defs>
<clipPath id="clip0_119_3434">
<rect width="36" height="36" fill="white"/>
</clipPath>
</defs>
</svg>
